# xmcd CD database file generated by Grip 3.2.0
# 
# Track frame offsets:
#       183
#       21383
#       34940
#       63605
#       76785
#       102185
#       111098
#       114470
#       124248
#       128623
#       150175
#       163933
#       186573
#       206088
#       221575
#       235983
# 
# Disc length: 3427 seconds
# 
# Revision: 2
# Processed by: cddbd v1.5.1PL0 Copyright (c) Steve Scherf et al.
# Submitted via: Grip 3.2.0
# 
DISCID=e00d6110
DTITLE=Kevin Braheny - Galaxies
DYEAR=1988
DGENRE=Space
TTITLE0=Galaxies Main Theme
TTITLE1=Starflight 1
TTITLE2=Ancient Stars
TTITLE3=Milky Way Rising
TTITLE4=Galactic Sky
TTITLE5=The Southern Cross
TTITLE6=Starflight 2
TTITLE7=The Pleaides
TTITLE8=Starflight 3
TTITLE9=Winds (Proxima Centauri)
TTITLE10=Intergalactic Space
TTITLE11=Ice Forests Of Orion
TTITLE12=Lookback Time
TTITLE13=Going Home
TTITLE14=Starflight 4
TTITLE15=Down To Earth
EXTD=AAD\nHS1-1004-2
EXTT0=
EXTT1=
EXTT2=
EXTT3=
EXTT4=
EXTT5=
EXTT6=
EXTT7=
EXTT8=
EXTT9=
EXTT10=
EXTT11=
EXTT12=
EXTT13=
EXTT14=
EXTT15=
PLAYORDER=
